<svg width="12" height="11" viewBox="0 0 12 11" fill="none" xmlns="http://www.w3.org/2000/svg">
<g id="arrows">
<g id="arrow-up">
<path id="Vector" d="M10.455 6.25001C10.3563 6.25058 10.2584 6.23166 10.167 6.19434C10.0757 6.15702 9.99255 6.10202 9.92247 6.03251L5.99997 2.11751L2.07747 6.04001C2.01023 6.11852 1.9275 6.18229 1.83445 6.22731C1.7414 6.27232 1.64005 6.29762 1.53676 6.30161C1.43347 6.3056 1.33047 6.2882 1.23423 6.25049C1.13798 6.21279 1.05057 6.15559 0.977482 6.0825C0.904391 6.00941 0.847198 5.922 0.809492 5.82576C0.771786 5.72951 0.754382 5.62651 0.758371 5.52322C0.762361 5.41993 0.787659 5.31858 0.832676 5.22554C0.877694 5.13249 0.941459 5.04975 1.01997 4.98251L5.46747 0.527513C5.53719 0.457216 5.62014 0.401421 5.71154 0.363344C5.80293 0.325268 5.90096 0.305664 5.99997 0.305664C6.09898 0.305664 6.19701 0.325268 6.2884 0.363344C6.3798 0.401421 6.46275 0.457216 6.53247 0.527513L10.98 4.98251C11.1197 5.12303 11.1981 5.31312 11.1981 5.51126C11.1981 5.7094 11.1197 5.89949 10.98 6.04001C10.8391 6.17583 10.6507 6.25119 10.455 6.25001Z" fill="#50CD89"/>
<path id="Vector_2" opacity="0.5" d="M6 10.7496C5.80109 10.7496 5.61032 10.6706 5.46967 10.5299C5.32902 10.3892 5.25 10.1985 5.25 9.99957V1.05957C5.25 0.860658 5.32902 0.669893 5.46967 0.52924C5.61032 0.388588 5.80109 0.30957 6 0.30957C6.19891 0.30957 6.38968 0.388588 6.53033 0.52924C6.67098 0.669893 6.75 0.860658 6.75 1.05957V9.99957C6.75 10.1985 6.67098 10.3892 6.53033 10.5299C6.38968 10.6706 6.19891 10.7496 6 10.7496Z" fill="#50CD89"/>
</g>
</g>
</svg>
