<svg width="11" height="11" viewBox="0 0 11 11" fill="none" xmlns="http://www.w3.org/2000/svg">
<g id="arrows">
<g id="arrow-down">
<path id="Vector" d="M5.49997 10.7494C5.40127 10.75 5.30342 10.731 5.21204 10.6937C5.12066 10.6564 5.03755 10.6014 4.96747 10.5319L0.51997 6.03938C0.441459 5.97215 0.377694 5.88941 0.332676 5.79636C0.287659 5.70331 0.262361 5.60196 0.258371 5.49867C0.254382 5.39538 0.271786 5.29239 0.309492 5.19614C0.347198 5.0999 0.404391 5.01249 0.477482 4.9394C0.550574 4.86631 0.637984 4.80911 0.734228 4.77141C0.830472 4.7337 0.933471 4.7163 1.03676 4.72029C1.14005 4.72428 1.2414 4.74957 1.33445 4.79459C1.4275 4.83961 1.51023 4.90337 1.57747 4.98188L5.49997 8.90439L9.42247 4.98188C9.48971 4.90337 9.57244 4.83961 9.66549 4.79459C9.75854 4.74957 9.85989 4.72428 9.96318 4.72029C10.0665 4.7163 10.1695 4.7337 10.2657 4.77141C10.362 4.80911 10.4494 4.86631 10.5225 4.9394C10.5955 5.01249 10.6527 5.0999 10.6904 5.19614C10.7282 5.29239 10.7456 5.39538 10.7416 5.49867C10.7376 5.60196 10.7123 5.70331 10.6673 5.79636C10.6222 5.88941 10.5585 5.97215 10.48 6.03938L6.03247 10.4944C5.96558 10.5707 5.8839 10.6327 5.79237 10.6765C5.70084 10.7203 5.60136 10.7451 5.49997 10.7494Z" fill="#F1416C"/>
<path id="Vector_2" opacity="0.5" d="M5.5 10.7496C5.30109 10.7496 5.11032 10.6706 4.96967 10.5299C4.82902 10.3892 4.75 10.1985 4.75 9.99957V1.05957C4.75 0.860658 4.82902 0.669893 4.96967 0.52924C5.11032 0.388588 5.30109 0.30957 5.5 0.30957C5.69891 0.30957 5.88968 0.388588 6.03033 0.52924C6.17098 0.669893 6.25 0.860658 6.25 1.05957V9.99957C6.25 10.1985 6.17098 10.3892 6.03033 10.5299C5.88968 10.6706 5.69891 10.7496 5.5 10.7496Z" fill="#F1416C"/>
</g>
</g>
</svg>
