<svg width="25" height="24" viewBox="0 0 25 24" fill="none" xmlns="http://www.w3.org/2000/svg">
<path opacity="0.3" d="M3.00781 10.9245V16.5773C3.00781 18.0054 3.57511 19.375 4.58491 20.3848C5.59472 21.3946 6.9643 21.9619 8.39238 21.9619H15.9029C16.6101 21.9619 17.3102 21.8226 17.9635 21.552C18.6168 21.2814 19.2104 20.8848 19.7104 20.3848C20.2104 19.8848 20.607 19.2912 20.8776 18.6379C21.1482 17.9846 21.2875 17.2844 21.2875 16.5773V10.9245C21.2875 10.7084 21.2017 10.5012 21.0489 10.3485C20.8961 10.1957 20.6889 10.1099 20.4729 10.1099H3.82245C3.6064 10.1099 3.39919 10.1957 3.24641 10.3485C3.09364 10.5012 3.00781 10.7084 3.00781 10.9245Z" fill="#A1A5B7"/>
<path d="M20.9382 7.6358C20.9845 7.75992 21.0002 7.89336 20.984 8.02483C20.9678 8.1563 20.9201 8.28193 20.8451 8.39109C20.77 8.50024 20.6698 8.58971 20.5528 8.65193C20.4359 8.71414 20.3057 8.74726 20.1732 8.74848H4.27782C4.1159 8.74962 3.95616 8.71117 3.8125 8.63648C3.66885 8.56178 3.54562 8.4531 3.45356 8.31991C3.36149 8.18671 3.30338 8.03303 3.28428 7.87224C3.26518 7.71145 3.28567 7.54843 3.34396 7.39737C3.64532 6.67477 4.09981 6.02612 4.67609 5.49615C5.25237 4.96618 5.93674 4.56749 6.682 4.32757V2.77777C6.68068 2.68823 6.69718 2.59931 6.73054 2.5162C6.7639 2.43309 6.81345 2.35744 6.87631 2.29365C6.93918 2.22986 7.01409 2.17921 7.09671 2.14464C7.17933 2.11007 7.26799 2.09228 7.35755 2.09229C7.53935 2.09229 7.71371 2.16451 7.84226 2.29306C7.97082 2.42161 8.04304 2.59597 8.04304 2.77777V4.07921C8.17219 4.07921 8.25166 4.07921 8.36095 4.07921H11.6096V2.77777C11.6096 2.59597 11.6818 2.42161 11.8103 2.29306C11.9389 2.16451 12.1133 2.09229 12.2951 2.09229C12.4769 2.09229 12.6512 2.16451 12.7798 2.29306C12.9083 2.42161 12.9805 2.59597 12.9805 2.77777V4.07921H15.8616C15.9709 4.07921 16.0702 4.07921 16.1795 4.07921V2.77777C16.1782 2.68823 16.1947 2.59931 16.228 2.5162C16.2614 2.43309 16.3109 2.35744 16.3738 2.29365C16.4367 2.22986 16.5116 2.17921 16.5942 2.14464C16.6768 2.11007 16.7655 2.09228 16.855 2.09229C17.0368 2.09229 17.2112 2.16451 17.3398 2.29306C17.4683 2.42161 17.5405 2.59597 17.5405 2.77777V4.32757C18.3204 4.58573 19.0315 5.01764 19.62 5.59073C20.2086 6.16381 20.6593 6.86309 20.9382 7.6358ZM8.89741 13.0204C8.73084 13.0223 8.56856 13.0735 8.43101 13.1675C8.29345 13.2615 8.18676 13.394 8.12437 13.5485C8.06198 13.7029 8.04667 13.8724 8.08036 14.0356C8.11406 14.1987 8.19526 14.3482 8.31374 14.4653C8.43222 14.5825 8.5827 14.6619 8.74623 14.6937C8.90976 14.7255 9.07903 14.7082 9.23276 14.644C9.38648 14.5798 9.51778 14.4716 9.61014 14.3329C9.7025 14.1943 9.75178 14.0314 9.75179 13.8648C9.74918 13.6399 9.65801 13.4252 9.49807 13.2671C9.33812 13.109 9.1223 13.0204 8.89741 13.0204ZM12.0864 13.0204C11.9199 13.0223 11.7576 13.0735 11.62 13.1675C11.4825 13.2615 11.3758 13.394 11.3134 13.5485C11.251 13.7029 11.2357 13.8724 11.2694 14.0356C11.3031 14.1987 11.3843 14.3482 11.5028 14.4653C11.6212 14.5825 11.7717 14.6619 11.9352 14.6937C12.0988 14.7255 12.268 14.7082 12.4218 14.644C12.5755 14.5798 12.7068 14.4716 12.7992 14.3329C12.8915 14.1943 12.9408 14.0314 12.9408 13.8648C12.9382 13.6399 12.847 13.4252 12.6871 13.2671C12.5271 13.109 12.3113 13.0204 12.0864 13.0204ZM15.3052 13.0204C15.1944 13.0204 15.0845 13.0422 14.9821 13.0846C14.8796 13.1271 14.7865 13.1893 14.7081 13.2677C14.6297 13.3461 14.5675 13.4392 14.5251 13.5417C14.4826 13.6441 14.4608 13.7539 14.4608 13.8648C14.4608 13.9757 14.4826 14.0855 14.5251 14.188C14.5675 14.2904 14.6297 14.3835 14.7081 14.4619C14.7865 14.5403 14.8796 14.6025 14.9821 14.645C15.0845 14.6874 15.1944 14.7093 15.3052 14.7093C15.4161 14.7093 15.5259 14.6874 15.6284 14.645C15.7309 14.6025 15.8239 14.5403 15.9024 14.4619C15.9808 14.3835 16.043 14.2904 16.0854 14.188C16.1278 14.0855 16.1497 13.9757 16.1497 13.8648C16.1497 13.7539 16.1278 13.6441 16.0854 13.5417C16.043 13.4392 15.9808 13.3461 15.9024 13.2677C15.8239 13.1893 15.7309 13.1271 15.6284 13.0846C15.5259 13.0422 15.4161 13.0204 15.3052 13.0204ZM8.88748 16.1994C8.7209 16.2014 8.55863 16.2526 8.42107 16.3466C8.28352 16.4405 8.17683 16.5731 8.11444 16.7276C8.05204 16.882 8.03673 17.0515 8.07043 17.2146C8.10412 17.3778 8.18532 17.5273 8.30381 17.6444C8.42229 17.7615 8.57276 17.841 8.73629 17.8728C8.89982 17.9045 9.0691 17.8873 9.22282 17.8231C9.37655 17.7589 9.50785 17.6506 9.6002 17.512C9.69256 17.3733 9.74185 17.2105 9.74186 17.0439C9.74187 16.9322 9.7197 16.8215 9.67664 16.7184C9.63358 16.6153 9.57049 16.5218 9.49102 16.4432C9.41156 16.3647 9.31729 16.3027 9.21369 16.2609C9.11009 16.219 8.99921 16.1981 8.88748 16.1994ZM12.0765 16.1994C11.9099 16.2014 11.7476 16.2526 11.6101 16.3466C11.4725 16.4405 11.3658 16.5731 11.3034 16.7276C11.2411 16.882 11.2257 17.0515 11.2594 17.2146C11.2931 17.3778 11.3743 17.5273 11.4928 17.6444C11.6113 17.7615 11.7618 17.841 11.9253 17.8728C12.0888 17.9045 12.2581 17.8873 12.4118 17.8231C12.5656 17.7589 12.6969 17.6506 12.7892 17.512C12.8816 17.3733 12.9309 17.2105 12.9309 17.0439C12.9309 16.9322 12.9087 16.8215 12.8657 16.7184C12.8226 16.6153 12.7595 16.5218 12.68 16.4432C12.6006 16.3647 12.5063 16.3027 12.4027 16.2609C12.2991 16.219 12.1882 16.1981 12.0765 16.1994ZM15.2854 16.1994C15.1193 16.2034 14.958 16.2562 14.8218 16.3513C14.6855 16.4465 14.5804 16.5797 14.5195 16.7343C14.4586 16.8889 14.4447 17.058 14.4795 17.2205C14.5143 17.3829 14.5963 17.5316 14.7151 17.6477C14.834 17.7638 14.9844 17.8423 15.1477 17.8733C15.3109 17.9043 15.4797 17.8864 15.6328 17.822C15.786 17.7575 15.9167 17.6493 16.0086 17.5109C16.1006 17.3725 16.1496 17.21 16.1497 17.0439C16.1484 16.9317 16.125 16.8208 16.0809 16.7177C16.0367 16.6145 15.9727 16.5211 15.8924 16.4426C15.8122 16.3642 15.7173 16.3024 15.6131 16.2607C15.5089 16.2189 15.3976 16.1981 15.2854 16.1994Z" fill="#A1A5B7"/>
</svg>