<svg width="40" height="40" viewBox="0 0 40 40" fill="none" xmlns="http://www.w3.org/2000/svg">
<g id="vuesax/linear/check">
<g id="check">
<path id="Vector" d="M18.368 32.5H12.5013C11.468 32.5 10.5513 32.4667 9.73464 32.35C5.3513 31.8667 4.16797 29.8 4.16797 24.1667V15.8333C4.16797 10.2 5.3513 8.13333 9.73464 7.65C10.5513 7.53333 11.468 7.5 12.5013 7.5H18.268" stroke="#64748B" stroke-width="3" stroke-linecap="round" stroke-linejoin="round"/>
<path id="Vector_2" d="M25.0352 7.5H27.5018C28.5352 7.5 29.4518 7.53333 30.2685 7.65C34.6518 8.13333 35.8352 10.2 35.8352 15.8333V24.1667C35.8352 29.8 34.6518 31.8667 30.2685 32.35C29.4518 32.4667 28.5352 32.5 27.5018 32.5H25.0352" stroke="#64748B" stroke-width="3" stroke-linecap="round" stroke-linejoin="round"/>
<path id="Vector_3" d="M25 3.33301V36.6663" stroke="#64748B" stroke-width="3" stroke-linecap="round" stroke-linejoin="round"/>
<path id="Vector_4" d="M13.332 14.167V25.8337" stroke="#64748B" stroke-width="3" stroke-linecap="round" stroke-linejoin="round"/>
</g>
</g>
</svg>
