<svg width="18" height="18" viewBox="0 0 18 18" fill="none" xmlns="http://www.w3.org/2000/svg">
<g id="design">
<path id="copy" d="M9.25964 17.9587H3.73464C2.75622 17.9565 1.81851 17.5669 1.12666 16.875C0.434819 16.1832 0.0451699 15.2455 0.0429688 14.267V8.74205C0.0429663 7.76219 0.431642 6.82234 1.12373 6.1287C1.81581 5.43505 2.75478 5.04425 3.73464 5.04205H9.25964C10.2409 5.04205 11.182 5.43187 11.8759 6.12575C12.5698 6.81964 12.9596 7.76075 12.9596 8.74205V14.267C12.9574 15.2469 12.5666 16.1859 11.873 16.878C11.1793 17.57 10.2395 17.9587 9.25964 17.9587ZM3.73464 6.29205C3.0863 6.29425 2.46527 6.55335 2.00761 7.01258C1.54995 7.4718 1.29297 8.09371 1.29297 8.74205V14.267C1.29297 14.9146 1.55022 15.5357 2.00812 15.9936C2.46602 16.4515 3.08707 16.7087 3.73464 16.7087H9.25964C9.90798 16.7087 10.5299 16.4517 10.9891 15.9941C11.4483 15.5364 11.7074 14.9154 11.7096 14.267V8.74205C11.7096 8.09227 11.4515 7.4691 10.992 7.00964C10.5326 6.55017 9.90942 6.29205 9.25964 6.29205H3.73464ZM15.293 12.8087C16.0617 12.5851 16.7371 12.1183 17.218 11.4782C17.6988 10.8381 17.959 10.0593 17.9596 9.25872V3.73371C17.9574 2.7553 17.5678 1.81759 16.8759 1.12574C16.1841 0.433898 15.2464 0.044249 14.268 0.0420478H8.74297C7.96979 0.0377992 7.21488 0.276969 6.58521 0.725669C5.95553 1.17437 5.48302 1.80984 5.23464 2.54205C5.20154 2.62146 5.1852 2.70685 5.18663 2.79287C5.18807 2.87889 5.20725 2.96369 5.24297 3.04196C5.27869 3.12022 5.33018 3.19027 5.39423 3.24772C5.45827 3.30516 5.53348 3.34877 5.61516 3.3758C5.69683 3.40284 5.78321 3.41272 5.86888 3.40482C5.95455 3.39693 6.03767 3.37144 6.11303 3.32994C6.18839 3.28844 6.25437 3.23183 6.30685 3.16365C6.35932 3.09547 6.39715 3.01719 6.41797 2.93371C6.58098 2.44669 6.89341 2.02346 7.31083 1.72424C7.72825 1.42501 8.22939 1.26503 8.74297 1.26705H14.268C14.9155 1.26705 15.5366 1.52429 15.9945 1.9822C16.4524 2.4401 16.7096 3.06114 16.7096 3.70871V9.23372C16.7012 9.76182 16.5256 10.2737 16.2083 10.6959C15.8909 11.118 15.4479 11.4289 14.943 11.5837C14.7838 11.6301 14.6497 11.7379 14.57 11.8832C14.4903 12.0285 14.4716 12.1996 14.518 12.3587C14.5644 12.5178 14.6721 12.652 14.8174 12.7317C14.9628 12.8114 15.1338 12.8301 15.293 12.7837V12.8087Z" fill="#94A3B8"/>
</g>
</svg>
