<svg width="34" height="34" viewBox="0 0 34 34" fill="none" xmlns="http://www.w3.org/2000/svg">
<g id="arrows">
<g id="minus-squared">
<path id="Vector" opacity="0.3" d="M23.982 33.8109H10.0154C7.44719 33.8109 4.98419 32.7907 3.16821 30.9747C1.35224 29.1587 0.332031 26.6957 0.332031 24.1275V10.1609C0.332031 7.59269 1.35224 5.1297 3.16821 3.31372C4.98419 1.49774 7.44719 0.477539 10.0154 0.477539H23.982C26.5502 0.477539 29.0132 1.49774 30.8292 3.31372C32.6452 5.1297 33.6654 7.59269 33.6654 10.1609V24.1275C33.6654 26.6957 32.6452 29.1587 30.8292 30.9747C29.0132 32.7907 26.5502 33.8109 23.982 33.8109ZM26.9987 17.1442C26.9987 16.7022 26.8231 16.2783 26.5105 15.9657C26.198 15.6531 25.7741 15.4775 25.332 15.4775H8.66537C8.22334 15.4775 7.79941 15.6531 7.48685 15.9657C7.17429 16.2783 6.9987 16.7022 6.9987 17.1442C6.9987 17.5862 7.17429 18.0102 7.48685 18.3227C7.79941 18.6353 8.22334 18.8109 8.66537 18.8109H25.332C25.7741 18.8109 26.198 18.6353 26.5105 18.3227C26.8231 18.0102 26.9987 17.5862 26.9987 17.1442Z" fill="#A1A5B7"/>
<path id="Vector_2" d="M25.4672 18.8109H8.53385C8.09183 18.8109 7.6679 18.6353 7.35534 18.3227C7.04278 18.0102 6.86719 17.5862 6.86719 17.1442C6.86719 16.7022 7.04278 16.2783 7.35534 15.9657C7.6679 15.6531 8.09183 15.4775 8.53385 15.4775H25.4672C25.9092 15.4775 26.3331 15.6531 26.6457 15.9657C26.9583 16.2783 27.1339 16.7022 27.1339 17.1442C27.1339 17.5862 26.9583 18.0102 26.6457 18.3227C26.3331 18.6353 25.9092 18.8109 25.4672 18.8109Z" fill="#A1A5B7"/>
</g>
</g>
</svg>
