<svg width="20" height="21" viewBox="0 0 20 21" fill="none" xmlns="http://www.w3.org/2000/svg">
<g id="vuesax/linear/edit">
<g id="edit">
<path id="Vector" d="M9.16797 1.71777H7.5013C3.33464 1.71777 1.66797 3.38444 1.66797 7.55111V12.5511C1.66797 16.7178 3.33464 18.3844 7.5013 18.3844H12.5013C16.668 18.3844 18.3346 16.7178 18.3346 12.5511V10.8844" stroke="#94A3B8" stroke-width="1.5" stroke-linecap="round" stroke-linejoin="round"/>
<path id="Vector_2" d="M13.3675 2.56717L6.80088 9.13384C6.55088 9.38384 6.30088 9.8755 6.25088 10.2338L5.89254 12.7422C5.75921 13.6505 6.40088 14.2838 7.30921 14.1588L9.81754 13.8005C10.1675 13.7505 10.6592 13.5005 10.9175 13.2505L17.4842 6.68384C18.6175 5.5505 19.1509 4.23384 17.4842 2.56717C15.8175 0.900504 14.5009 1.43384 13.3675 2.56717Z" stroke="#94A3B8" stroke-width="1.5" stroke-miterlimit="10" stroke-linecap="round" stroke-linejoin="round"/>
<path id="Vector_3" d="M12.4258 3.50879C12.9841 5.50046 14.5424 7.05879 16.5424 7.62546" stroke="#94A3B8" stroke-width="1.5" stroke-miterlimit="10" stroke-linecap="round" stroke-linejoin="round"/>
</g>
</g>
</svg>
