<svg xmlns="http://www.w3.org/2000/svg" width="30" height="30" viewBox="0 0 30 30" fill="none">
  <path d="M22.5617 2.50026H12.2617C10.9688 2.50026 9.72881 3.01387 8.81457 3.92811C7.90033 4.84235 7.38672 6.08233 7.38672 7.37526V7.50026H17.7367C19.0296 7.50026 20.2696 8.01387 21.1839 8.92811C22.0981 9.84235 22.6117 11.0823 22.6117 12.3753V19.6753C23.2545 19.6786 23.8915 19.5544 24.486 19.31C25.0805 19.0655 25.6206 18.7056 26.0751 18.2511C26.5296 17.7966 26.8895 17.2565 27.1339 16.662C27.3784 16.0676 27.5025 15.4305 27.4992 14.7878V7.35026C27.4943 6.70736 27.3626 6.07174 27.1117 5.47981C26.8607 4.88789 26.4955 4.35129 26.0368 3.90076C25.5782 3.45023 25.0351 3.09461 24.4388 2.85429C23.8425 2.61397 23.2046 2.49366 22.5617 2.50026Z" fill="#F59E0B"/>
  <g opacity="0.3">
    <path d="M17.7375 7.5H7.5C6.20808 7.5033 4.97003 8.01797 4.0565 8.9315C3.14297 9.84503 2.6283 11.0831 2.625 12.375V19.8125C2.63488 21.1001 3.15245 22.3317 4.06527 23.2399C4.97808 24.148 6.21239 24.6592 7.5 24.6625H9.025C9.2465 24.6596 9.46526 24.7118 9.66162 24.8143C9.85798 24.9169 10.0258 25.0666 10.15 25.25L11.25 26.8375C11.3974 27.0489 11.5937 27.2216 11.8223 27.3409C12.0508 27.4602 12.3047 27.5224 12.5625 27.5224C12.8203 27.5224 13.0742 27.4602 13.3027 27.3409C13.5313 27.2216 13.7276 27.0489 13.875 26.8375L15 25.25C15.1242 25.0666 15.292 24.9169 15.4884 24.8143C15.6847 24.7118 15.9035 24.6596 16.125 24.6625H17.7125C19.0054 24.6625 20.2454 24.1489 21.1596 23.2346C22.0739 22.3204 22.5875 21.0804 22.5875 19.7875V12.35C22.5809 11.0657 22.0678 9.83592 21.1597 8.92779C20.2516 8.01966 19.0218 7.50657 17.7375 7.5Z" fill="#F59E0B"/>
  </g>
  <path d="M8.22578 17.3998C8.87472 17.3998 9.40078 16.8737 9.40078 16.2248C9.40078 15.5759 8.87472 15.0498 8.22578 15.0498C7.57685 15.0498 7.05078 15.5759 7.05078 16.2248C7.05078 16.8737 7.57685 17.3998 8.22578 17.3998Z" fill="#F59E0B"/>
  <path d="M12.6008 17.3998C13.2497 17.3998 13.7758 16.8737 13.7758 16.2248C13.7758 15.5759 13.2497 15.0498 12.6008 15.0498C11.9518 15.0498 11.4258 15.5759 11.4258 16.2248C11.4258 16.8737 11.9518 17.3998 12.6008 17.3998Z" fill="#F59E0B"/>
  <path d="M16.9641 17.3998C17.613 17.3998 18.1391 16.8737 18.1391 16.2248C18.1391 15.5759 17.613 15.0498 16.9641 15.0498C16.3151 15.0498 15.7891 15.5759 15.7891 16.2248C15.7891 16.8737 16.3151 17.3998 16.9641 17.3998Z" fill="#F59E0B"/>
</svg>