<svg xmlns="http://www.w3.org/2000/svg" width="12" height="14" viewBox="0 0 12 14" fill="none">
  <path d="M1.84794 5.66683L5.26794 0.333496H1.75461C1.36616 0.33348 0.993414 0.486874 0.71749 0.760301C0.441567 1.03373 0.284791 1.40506 0.281275 1.7935V3.4535C0.278996 3.83995 0.430031 4.21155 0.701275 4.48683L1.84794 5.66683Z" fill="#5E6278"/>
  <path opacity="0.3" d="M10.2464 0.333496H6.45974L2.56641 6.38016L3.23307 7.04683C3.70647 7.52642 3.97227 8.17295 3.97307 8.84683V12.3335C3.96207 12.5873 4.02382 12.839 4.15106 13.059C4.2783 13.2789 4.46574 13.4579 4.69129 13.5749C4.91685 13.6919 5.17113 13.742 5.4242 13.7193C5.67727 13.6966 5.91859 13.6021 6.11974 13.4468L7.03307 12.7802C7.19978 12.6627 7.33585 12.507 7.42982 12.326C7.52379 12.145 7.57292 11.9441 7.57307 11.7402V8.9335C7.56783 8.5707 7.63937 8.21091 7.78298 7.87771C7.9266 7.54452 8.13906 7.24546 8.40641 7.00016L11.2264 4.48683C11.3834 4.34872 11.5088 4.17835 11.5939 3.98736C11.679 3.79637 11.722 3.58926 11.7197 3.38016V1.7935C11.7162 1.40506 11.5594 1.03373 11.2835 0.760301C11.0076 0.486874 10.6349 0.33348 10.2464 0.333496Z" fill="#5E6278"/>
</svg>