<svg width="41" height="40" viewBox="0 0 41 40" fill="none" xmlns="http://www.w3.org/2000/svg">
<g id="vuesax/linear/group">
<g id="group">
<path id="Vector" d="M25.332 3.33301H15.6654C14.532 3.33301 12.932 3.99968 12.132 4.79968L5.29871 11.633C4.49871 12.433 3.83203 14.033 3.83203 15.1664V24.833C3.83203 25.9663 4.49871 27.5663 5.29871 28.3663L12.132 35.1997C12.932 35.9997 14.532 36.6663 15.6654 36.6663H25.332C26.4654 36.6663 28.0654 35.9997 28.8654 35.1997L35.6987 28.3663C36.4987 27.5663 37.1654 25.9663 37.1654 24.833V15.1664C37.1654 14.033 36.4987 12.433 35.6987 11.633L28.8654 4.79968C28.0654 3.99968 26.4654 3.33301 25.332 3.33301Z" stroke="#64748B" stroke-width="3" stroke-linecap="round" stroke-linejoin="round"/>
<path id="Vector_2" d="M8.73438 31.8L32.301 8.2334" stroke="#64748B" stroke-width="3" stroke-linecap="round" stroke-linejoin="round"/>
</g>
</g>
</svg>
