<svg width="34" height="34" viewBox="0 0 34 34" fill="none" xmlns="http://www.w3.org/2000/svg">
<g id="arrows">
<g id="minus-squared">
<path id="Vector" opacity="0.3" d="M15.3333 18.8109H8.66667C8.22464 18.8109 7.80072 18.6353 7.48816 18.3227C7.1756 18.0102 7 17.5862 7 17.1442C7 16.7022 7.1756 16.2783 7.48816 15.9657C7.80072 15.6531 8.22464 15.4775 8.66667 15.4775H15.3333V18.8109ZM25.3333 15.4775H18.6667V18.8109H25.3333C25.7754 18.8109 26.1993 18.6353 26.5118 18.3227C26.8244 18.0102 27 17.5862 27 17.1442C27 16.7022 26.8244 16.2783 26.5118 15.9657C26.1993 15.6531 25.7754 15.4775 25.3333 15.4775Z" fill="#A1A5B7"/>
<path id="Vector_2" opacity="0.3" d="M23.982 0.477539H10.0154C4.66741 0.477539 0.332031 4.81292 0.332031 10.1609V24.1275C0.332031 29.4755 4.66741 33.8109 10.0154 33.8109H23.982C29.33 33.8109 33.6654 29.4755 33.6654 24.1275V10.1609C33.6654 4.81292 29.33 0.477539 23.982 0.477539Z" fill="#A1A5B7"/>
<path id="Vector_3" d="M25.3333 15.4779H18.6667V8.8112C18.6667 8.36917 18.4911 7.94525 18.1785 7.63269C17.8659 7.32013 17.442 7.14453 17 7.14453C16.558 7.14453 16.134 7.32013 15.8215 7.63269C15.5089 7.94525 15.3333 8.36917 15.3333 8.8112V15.4779H8.66667C8.22464 15.4779 7.80072 15.6535 7.48816 15.966C7.1756 16.2786 7 16.7025 7 17.1445C7 17.5866 7.1756 18.0105 7.48816 18.323C7.80072 18.6356 8.22464 18.8112 8.66667 18.8112H15.3333V25.4779C15.3333 25.9199 15.5089 26.3438 15.8215 26.6564C16.134 26.9689 16.558 27.1445 17 27.1445C17.442 27.1445 17.8659 26.9689 18.1785 26.6564C18.4911 26.3438 18.6667 25.9199 18.6667 25.4779V18.8112H25.3333C25.7754 18.8112 26.1993 18.6356 26.5118 18.323C26.8244 18.0105 27 17.5866 27 17.1445C27 16.7025 26.8244 16.2786 26.5118 15.966C26.1993 15.6535 25.7754 15.4779 25.3333 15.4779Z" fill="#A1A5B7"/>
</g>
</g>
</svg>
