<svg width="16" height="17" viewBox="0 0 16 17" fill="none" xmlns="http://www.w3.org/2000/svg">
<g id="vuesax/linear/message">
<g id="message">
<path id="Vector" d="M5.66536 12.8109H5.33203C2.66536 12.8109 1.33203 12.1442 1.33203 8.81087V5.47754C1.33203 2.81087 2.66536 1.47754 5.33203 1.47754H10.6654C13.332 1.47754 14.6654 2.81087 14.6654 5.47754V8.81087C14.6654 11.4775 13.332 12.8109 10.6654 12.8109H10.332C10.1254 12.8109 9.92536 12.9109 9.7987 13.0775L8.7987 14.4109C8.3587 14.9975 7.6387 14.9975 7.1987 14.4109L6.1987 13.0775C6.09203 12.9309 5.84536 12.8109 5.66536 12.8109Z" stroke="#64748B" stroke-width="1.5" stroke-miterlimit="10" stroke-linecap="round" stroke-linejoin="round"/>
<path id="Vector_2" d="M10.6656 7.47786H10.6716" stroke="#64748B" stroke-width="2" stroke-linecap="round" stroke-linejoin="round"/>
<path id="Vector_3" d="M7.99764 7.47786H8.00363" stroke="#64748B" stroke-width="2" stroke-linecap="round" stroke-linejoin="round"/>
<path id="Vector_4" d="M5.32967 7.47786H5.33566" stroke="#64748B" stroke-width="2" stroke-linecap="round" stroke-linejoin="round"/>
</g>
</g>
</svg>
