<svg width="20" height="20" viewBox="0 0 20 20" fill="none" xmlns="http://www.w3.org/2000/svg">
<g id="vuesax/bold/save-2">
<g id="save-2">
<path id="Vector" d="M10.743 4.90039H4.25964C2.83464 4.90039 1.66797 6.06706 1.66797 7.49206V16.9587C1.66797 18.1671 2.53464 18.6837 3.59297 18.0921L6.86797 16.2671C7.21797 16.0754 7.78464 16.0754 8.1263 16.2671L11.4013 18.0921C12.468 18.6754 13.3346 18.1671 13.3346 16.9587V7.49206C13.3346 6.06706 12.168 4.90039 10.743 4.90039Z" fill="#FFFBEB"/>
<path id="Vector_2" d="M18.3329 4.25866V13.7253C18.3329 14.9337 17.4662 15.442 16.4079 14.8587L14.7995 13.9587C14.6662 13.8837 14.5829 13.742 14.5829 13.592V7.49199C14.5829 5.37533 12.8579 3.65033 10.7412 3.65033H7.34954C7.04121 3.65033 6.82454 3.32533 6.96621 3.05866C7.39954 2.23366 8.26621 1.66699 9.25788 1.66699H15.7412C17.1662 1.66699 18.3329 2.83366 18.3329 4.25866Z" fill="#FFFBEB"/>
</g>
</g>
</svg>
