<svg xmlns="http://www.w3.org/2000/svg" width="14" height="14" viewBox="0 0 14 14" fill="none">
  <path opacity="0.3" d="M13.333 11.9468L11.2196 9.94678C10.8178 10.4641 10.3363 10.9142 9.79297 11.2801L11.9663 13.3468C12.0577 13.4535 12.1707 13.5396 12.2978 13.5995C12.4249 13.6593 12.5633 13.6915 12.7038 13.6939C12.8443 13.6963 12.9837 13.6689 13.1128 13.6135C13.2419 13.558 13.3578 13.4758 13.4528 13.3723C13.5478 13.2687 13.6197 13.1462 13.6639 13.0128C13.708 12.8794 13.7234 12.7382 13.7089 12.5984C13.6944 12.4586 13.6505 12.3235 13.5799 12.202C13.5094 12.0805 13.4138 11.9753 13.2996 11.8934L13.333 11.9468Z" fill="#A1A5B7"/>
  <path d="M6.42578 0.333496C5.2391 0.333496 4.07906 0.68539 3.09236 1.34468C2.10567 2.00397 1.33663 2.94104 0.882507 4.0374C0.428381 5.13375 0.309561 6.34015 0.541072 7.50404C0.772584 8.66792 1.34403 9.73702 2.18314 10.5761C3.02226 11.4153 4.09136 11.9867 5.25524 12.2182C6.41913 12.4497 7.62553 12.3309 8.72188 11.8768C9.81824 11.4226 10.7553 10.6536 11.4146 9.66692C12.0739 8.68022 12.4258 7.52018 12.4258 6.3335C12.4258 4.7422 11.7936 3.21607 10.6684 2.09086C9.54321 0.965637 8.01708 0.333496 6.42578 0.333496ZM6.42578 10.5735C5.58879 10.5735 4.77059 10.3254 4.07456 9.86051C3.37854 9.39564 2.83594 8.73488 2.51534 7.96173C2.19473 7.18857 2.11051 6.33773 2.27331 5.51673C2.43612 4.69573 2.83864 3.94141 3.43002 3.3491C4.02139 2.75679 4.77508 2.35308 5.59582 2.18899C6.41657 2.02489 7.26754 2.10777 8.0412 2.42716C8.81485 2.74655 9.47647 3.28811 9.94243 3.9834C10.4084 4.67869 10.6578 5.49651 10.6591 6.3335C10.6609 6.89023 10.5526 7.44183 10.3406 7.95661C10.1285 8.47139 9.81689 8.9392 9.42353 9.33319C9.03016 9.72717 8.56284 10.0396 8.04839 10.2524C7.53395 10.4653 6.98252 10.5744 6.42578 10.5735Z" fill="#A1A5B7"/>
</svg>