<svg width="34" height="34" viewBox="0 0 34 34" fill="none" xmlns="http://www.w3.org/2000/svg">
  <path opacity="0.3" d="M31.307 16.2918V17.8501C31.307 18.7001 30.7404 19.2668 30.032 19.4084L28.1904 19.6919C27.907 20.8252 27.482 21.9584 26.7737 22.9501L27.907 24.5084C28.332 25.0751 28.332 26.0667 27.7654 26.6334L26.632 27.7668C26.0654 28.3335 25.2154 28.3334 24.507 27.9084L22.9487 26.7752C21.957 27.3419 20.8237 27.9085 19.6904 28.1919L19.407 30.0334C19.2654 30.7418 18.557 31.3085 17.8487 31.3085H16.2904C15.4404 31.3085 14.8737 30.7418 14.732 30.0334L14.4487 28.1919C13.3154 27.9085 12.182 27.4835 11.1904 26.7752L9.63203 27.9084C9.06536 28.3334 8.0737 28.3335 7.50703 27.7668L6.3737 26.6334C5.80703 26.0667 5.80703 25.2167 6.23203 24.5084L7.36536 22.9501C6.79869 21.9584 6.23203 20.8252 5.94869 19.6919L4.10703 19.4084C3.39869 19.2668 2.83203 18.5585 2.83203 17.8501V16.2918C2.83203 15.4418 3.39869 14.8752 4.10703 14.7335L5.94869 14.4501C6.23203 13.3168 6.65703 12.1835 7.36536 11.1919L6.23203 9.63339C5.80703 9.06673 5.80703 8.07506 6.3737 7.50839L7.50703 6.37516C8.0737 5.8085 8.9237 5.80853 9.63203 6.23353L11.1904 7.36676C12.182 6.80009 13.3154 6.23343 14.4487 5.95009L14.732 4.10853C14.8737 3.4002 15.582 2.8335 16.2904 2.8335H17.8487C18.6987 2.8335 19.2654 3.4002 19.407 4.10853L19.6904 5.95009C20.8237 6.23343 21.957 6.65843 22.9487 7.36676L24.507 6.23353C25.0737 5.80853 26.0654 5.8085 26.632 6.37516L27.7654 7.50839C28.332 8.07506 28.332 8.92506 27.907 9.63339L26.7737 11.1919C27.3404 12.1835 27.907 13.3168 28.1904 14.4501L30.032 14.7335C30.7404 14.8752 31.307 15.5835 31.307 16.2918ZM17.1404 12.1835C14.4487 12.1835 12.182 14.4501 12.182 17.1418C12.182 19.8335 14.4487 22.1001 17.1404 22.1001C19.832 22.1001 22.0987 19.8335 22.0987 17.1418C22.0987 14.4501 19.832 12.1835 17.1404 12.1835Z" fill="#6B7280"/>
  <path d="M24.2253 17.1414C24.2253 21.1081 21.1086 24.2248 17.1419 24.2248C13.1753 24.2248 10.0586 21.1081 10.0586 17.1414C10.0586 13.1748 13.1753 10.0581 17.1419 10.0581C21.1086 10.0581 24.2253 13.1748 24.2253 17.1414ZM17.1419 14.3081C15.5836 14.3081 14.3086 15.5831 14.3086 17.1414C14.3086 18.6998 15.5836 19.9748 17.1419 19.9748C18.7003 19.9748 19.9753 18.6998 19.9753 17.1414C19.9753 15.5831 18.7003 14.3081 17.1419 14.3081Z" fill="#6B7280"/>
</svg>
