<svg xmlns="http://www.w3.org/2000/svg" width="20" height="21" viewBox="0 0 20 21" fill="none">
  <path fill-rule="evenodd" clip-rule="evenodd" d="M5.625 7.33203C4.87908 7.33203 4.16371 7.62835 3.63626 8.15579C3.10882 8.68324 2.8125 9.39861 2.8125 10.1445C2.8125 10.8905 3.10882 11.6058 3.63626 12.1333C4.16371 12.6607 4.87908 12.957 5.625 12.957H8.77578V14.832H5.625C4.3818 14.832 3.18951 14.3382 2.31044 13.4591C1.43136 12.58 0.9375 11.3877 0.9375 10.1445C0.9375 8.90133 1.43136 7.70905 2.31044 6.82997C3.18951 5.95089 4.3818 5.45703 5.625 5.45703H8.72695V7.33203H5.625Z" fill="#78350F"/>
  <path fill-rule="evenodd" clip-rule="evenodd" d="M11.2715 5.45703H14.3734C15.6166 5.45703 16.8089 5.95089 17.688 6.82997C18.5671 7.70905 19.0609 8.90133 19.0609 10.1445C19.0609 11.3877 18.5671 12.58 17.688 13.4591C16.8089 14.3382 15.6166 14.832 14.3734 14.832H11.2227V12.957H14.3734C15.1194 12.957 15.8347 12.6607 16.3622 12.1333C16.8896 11.6058 17.1859 10.8905 17.1859 10.1445C17.1859 9.39861 16.8896 8.68324 16.3622 8.15579C15.8347 7.62835 15.1194 7.33203 14.3734 7.33203H11.2715V5.45703Z" fill="#78350F"/>
  <path fill-rule="evenodd" clip-rule="evenodd" d="M5.66797 9.20703H14.4125V11.082H5.66797V9.20703Z" fill="#64748B"/>
</svg>